<!DOCTYPE svg PUBLIC "-//W3C//DTD SVG 1.1//EN" "http://www.w3.org/Graphics/SVG/1.1/DTD/svg11.dtd">
<!-- Uploaded to: SVG Repo, www.svgrepo.com, Transformed by: SVG Repo Mixer Tools -->
<svg width="800px" height="800px" viewBox="-3.2 -3.2 26.40 26.40" version="1.1" xmlns="http://www.w3.org/2000/svg" fill="#000000">
<g id="SVGRepo_bgCarrier" stroke-width="0"/>
<g id="SVGRepo_tracerCarrier" stroke-linecap="round" stroke-linejoin="round"/>
<g id="SVGRepo_iconCarrier"> <g id="layer1"> <path d="M 0 3 L 0 17 L 20 17 L 20 3 L 0 3 z M 1 4 L 19 4 L 19 16 L 1 16 L 1 4 z M 2 5 L 2 6 L 3 6 L 3 5 L 2 5 z M 17 5 L 17 6 L 18 6 L 18 5 L 17 5 z M 7 6.1171875 L 7 13.882812 L 7.7578125 13.429688 L 13.472656 10 L 7 6.1171875 z M 8 7.8847656 L 11.525391 10 L 8 12.115234 L 8 7.8847656 z M 2 8 L 2 9 L 3 9 L 3 8 L 2 8 z M 17 8 L 17 9 L 18 9 L 18 8 L 17 8 z M 2 11 L 2 12 L 3 12 L 3 11 L 2 11 z M 17 11 L 17 12 L 18 12 L 18 11 L 17 11 z M 2 14 L 2 15 L 3 15 L 3 14 L 2 14 z M 17 14 L 17 15 L 18 15 L 18 14 L 17 14 z " style="fill:#ffffff; fill-opacity:1;  stroke-width:0.0002;"/> </g> </g>
</svg>